Genre:Action | Adventure | Family | Fantasy
Language:English
IMDb:http://www.imdb.com/title/tt0938283/
Source:DVDR-ENCHANTED.Thanks
Sample:yes
Subtitles: ROMANA

General
Complete name :The Last Airbender 2010.CAMRIP.XVID.FEEL-FREE.avi
Format : AVI
Format/Info : Audio Video Interleave
File size : 724 MiB
Duration : 1h 34mn
Overall bit rate : 1 069 Kbps
Writing library : VirtualDub build 32817/release
Video #0
ID : 0
Format : MPEG-4 Visual
Format profile : AdvancedSimple@L5
Format settings, BVOP : Yes
Format settings, QPel : No
Format settings, GMC : No warppoints
Format settings, Matrix : Custom
Codec ID : XVID
Codec ID/Hint : XviD
Duration : 1h 34mn
Bit rate : 929 Kbps
Width : 688 pixels
Height : 288 pixels
Display aspect ratio : 2.35:1
Frame rate : 29.970 fps
Resolution : 24 bits
Colorimetry : 4:2:0
Scan type : Progressive
Bits/(Pixel*Frame) : 0.157
Stream size : 629 MiB (87%)
Writing library : XviD 1.2.1 (UTC 2008-12-04)
Audio #1
ID : 1
Format : MPEG Audio
Format version : Version 1
Format profile : Layer 3
Codec ID : 55
Codec ID/Hint : MP3
Duration : 1h 34mn
Bit rate mode : Constant
Bit rate : 128 Kbps
Channel(s) : 2 channels
Sampling rate : 48.0 KHz
Resolution : 16 bits
Stream size : 86.7 MiB (12%)
Alignment : Split accross interleaves
Interleave, duration : 33 ms (1.00 video frame)
Interleave, preload duration : 500 ms
Plot:
The story follows the adventures of Aang, a young successor to a long line of Avatars, who must put his childhood ways aside and stop the Fire Nation from enslaving the Water, Earth and Air nations.


Screenshots:
 
http://postimg.com/image/19000/18916.jpg
 
http://postimg.com/image/19000/18917.jpg